<svg width="170" height="172" viewBox="0 0 170 172" fill="none" xmlns="http://www.w3.org/2000/svg">
<path fill-rule="evenodd" clip-rule="evenodd" d="M9.04255 4.52128C9.04255 7.01831 7.01831 9.04255 4.52128 9.04255C2.02424 9.04255 0 7.01831 0 4.52128C0 2.02424 2.02424 0 4.52128 0C7.01831 0 9.04255 2.02424 9.04255 4.52128ZM9.04255 45.2128C9.04255 47.7098 7.01831 49.734 4.52128 49.734C2.02424 49.734 0 47.7098 0 45.2128C0 42.7157 2.02424 40.6915 4.52128 40.6915C7.01831 40.6915 9.04255 42.7157 9.04255 45.2128ZM4.52128 90.4255C7.01831 90.4255 9.04255 88.4013 9.04255 85.9043C9.04255 83.4072 7.01831 81.383 4.52128 81.383C2.02424 81.383 0 83.4072 0 85.9043C0 88.4013 2.02424 90.4255 4.52128 90.4255ZM9.04255 126.596C9.04255 129.093 7.01831 131.117 4.52128 131.117C2.02424 131.117 0 129.093 0 126.596C0 124.099 2.02424 122.074 4.52128 122.074C7.01831 122.074 9.04255 124.099 9.04255 126.596ZM4.52128 171.809C7.01831 171.809 9.04255 169.784 9.04255 167.287C9.04255 164.79 7.01831 162.766 4.52128 162.766C2.02424 162.766 0 164.79 0 167.287C0 169.784 2.02424 171.809 4.52128 171.809ZM49.2819 4.52128C49.2819 7.01831 47.2577 9.04255 44.7606 9.04255C42.2636 9.04255 40.2394 7.01831 40.2394 4.52128C40.2394 2.02424 42.2636 0 44.7606 0C47.2577 0 49.2819 2.02424 49.2819 4.52128ZM44.7606 49.734C47.2577 49.734 49.2819 47.7098 49.2819 45.2128C49.2819 42.7157 47.2577 40.6915 44.7606 40.6915C42.2636 40.6915 40.2394 42.7157 40.2394 45.2128C40.2394 47.7098 42.2636 49.734 44.7606 49.734ZM49.2819 85.9043C49.2819 88.4013 47.2577 90.4255 44.7606 90.4255C42.2636 90.4255 40.2394 88.4013 40.2394 85.9043C40.2394 83.4072 42.2636 81.383 44.7606 81.383C47.2577 81.383 49.2819 83.4072 49.2819 85.9043ZM44.7606 131.117C47.2577 131.117 49.2819 129.093 49.2819 126.596C49.2819 124.099 47.2577 122.074 44.7606 122.074C42.2636 122.074 40.2394 124.099 40.2394 126.596C40.2394 129.093 42.2636 131.117 44.7606 131.117ZM49.2819 167.287C49.2819 169.784 47.2577 171.809 44.7606 171.809C42.2636 171.809 40.2394 169.784 40.2394 167.287C40.2394 164.79 42.2636 162.766 44.7606 162.766C47.2577 162.766 49.2819 164.79 49.2819 167.287ZM85 9.04255C87.497 9.04255 89.5213 7.01831 89.5213 4.52128C89.5213 2.02424 87.497 0 85 0C82.503 0 80.4787 2.02424 80.4787 4.52128C80.4787 7.01831 82.503 9.04255 85 9.04255ZM89.5213 45.2128C89.5213 47.7098 87.497 49.734 85 49.734C82.503 49.734 80.4787 47.7098 80.4787 45.2128C80.4787 42.7157 82.503 40.6915 85 40.6915C87.497 40.6915 89.5213 42.7157 89.5213 45.2128ZM85 90.4255C87.497 90.4255 89.5213 88.4013 89.5213 85.9043C89.5213 83.4072 87.497 81.383 85 81.383C82.503 81.383 80.4787 83.4072 80.4787 85.9043C80.4787 88.4013 82.503 90.4255 85 90.4255ZM89.5213 126.596C89.5213 129.093 87.497 131.117 85 131.117C82.503 131.117 80.4787 129.093 80.4787 126.596C80.4787 124.099 82.503 122.074 85 122.074C87.497 122.074 89.5213 124.099 89.5213 126.596ZM85 171.809C87.497 171.809 89.5213 169.784 89.5213 167.287C89.5213 164.79 87.497 162.766 85 162.766C82.503 162.766 80.4787 164.79 80.4787 167.287C80.4787 169.784 82.503 171.809 85 171.809ZM129.761 4.52128C129.761 7.01831 127.736 9.04255 125.239 9.04255C122.742 9.04255 120.718 7.01831 120.718 4.52128C120.718 2.02424 122.742 0 125.239 0C127.736 0 129.761 2.02424 129.761 4.52128ZM125.239 49.734C127.736 49.734 129.761 47.7098 129.761 45.2128C129.761 42.7157 127.736 40.6915 125.239 40.6915C122.742 40.6915 120.718 42.7157 120.718 45.2128C120.718 47.7098 122.742 49.734 125.239 49.734ZM129.761 85.9043C129.761 88.4013 127.736 90.4255 125.239 90.4255C122.742 90.4255 120.718 88.4013 120.718 85.9043C120.718 83.4072 122.742 81.383 125.239 81.383C127.736 81.383 129.761 83.4072 129.761 85.9043ZM125.239 131.117C127.736 131.117 129.761 129.093 129.761 126.596C129.761 124.099 127.736 122.074 125.239 122.074C122.742 122.074 120.718 124.099 120.718 126.596C120.718 129.093 122.742 131.117 125.239 131.117ZM129.761 167.287C129.761 169.784 127.736 171.809 125.239 171.809C122.742 171.809 120.718 169.784 120.718 167.287C120.718 164.79 122.742 162.766 125.239 162.766C127.736 162.766 129.761 164.79 129.761 167.287ZM165.479 9.04255C167.976 9.04255 170 7.01831 170 4.52128C170 2.02424 167.976 0 165.479 0C162.982 0 160.957 2.02424 160.957 4.52128C160.957 7.01831 162.982 9.04255 165.479 9.04255ZM170 45.2128C170 47.7098 167.976 49.734 165.479 49.734C162.982 49.734 160.957 47.7098 160.957 45.2128C160.957 42.7157 162.982 40.6915 165.479 40.6915C167.976 40.6915 170 42.7157 170 45.2128ZM165.479 90.4255C167.976 90.4255 170 88.4013 170 85.9043C170 83.4072 167.976 81.383 165.479 81.383C162.982 81.383 160.957 83.4072 160.957 85.9043C160.957 88.4013 162.982 90.4255 165.479 90.4255ZM170 126.596C170 129.093 167.976 131.117 165.479 131.117C162.982 131.117 160.957 129.093 160.957 126.596C160.957 124.099 162.982 122.074 165.479 122.074C167.976 122.074 170 124.099 170 126.596ZM165.479 171.809C167.976 171.809 170 169.784 170 167.287C170 164.79 167.976 162.766 165.479 162.766C162.982 162.766 160.957 164.79 160.957 167.287C160.957 169.784 162.982 171.809 165.479 171.809Z" fill="#B4CDFF"/>
</svg>
