<svg width="20" height="24" viewBox="0 0 20 24" fill="none" xmlns="http://www.w3.org/2000/svg">
<path fill-rule="evenodd" clip-rule="evenodd" d="M9.45001 23.8301C9.60999 23.9399 9.81 24 10 24C10.19 24 10.39 23.9399 10.55 23.8301C10.94 23.5801 20 17.4502 20 10C20 4.49023 15.51 0 10 0C4.48999 0 0 4.49023 0 10C0 17.4502 9.06 23.5801 9.45001 23.8301ZM2 10C2 5.58984 5.59003 2 10 2C14.41 2 18 5.58984 18 10C18 15.4102 11.9 20.3599 10 21.77C8.09998 20.3599 2 15.4102 2 10ZM6 10C6 12.21 7.78998 14 10 14C12.21 14 14 12.21 14 10C14 7.79004 12.21 6 10 6C7.78998 6 6 7.79004 6 10ZM8 10C8 8.8999 8.90002 8 10 8C11.1 8 12 8.8999 12 10C12 11.1001 11.1 12 10 12C8.90002 12 8 11.1001 8 10Z" fill="#FF715B"/>
</svg>
